<?xml version="1.0" encoding="UTF-8" standalone="no"?>
<svg
   xml:space="preserve"
   width="192"
   height="192"
   viewBox="0 0 50.8 50.8"
   version="1.1"
   id="svg525"
   sodipodi:docname="logo.svg"
   inkscape:version="1.2.2 (732a01da63, 2022-12-09)"
   xmlns:inkscape="http://www.inkscape.org/namespaces/inkscape"
   xmlns:sodipodi="http://sodipodi.sourceforge.net/DTD/sodipodi-0.dtd"
   xmlns="http://www.w3.org/2000/svg"
   xmlns:svg="http://www.w3.org/2000/svg"><defs
     id="defs529" /><sodipodi:namedview
     id="namedview527"
     pagecolor="#ffffff"
     bordercolor="#000000"
     borderopacity="0.25"
     inkscape:showpageshadow="2"
     inkscape:pageopacity="0.0"
     inkscape:pagecheckerboard="0"
     inkscape:deskcolor="#d1d1d1"
     showgrid="false"
     inkscape:zoom="1.4805048"
     inkscape:cx="85.443828"
     inkscape:cy="117.8652"
     inkscape:window-width="1920"
     inkscape:window-height="991"
     inkscape:window-x="-9"
     inkscape:window-y="-9"
     inkscape:window-maximized="1"
     inkscape:current-layer="svg525" /><path
     id="path358"
     style="fill:#d40000;fill-opacity:1;stroke-width:2.22099"
     class="fill-color-icon-svg"
     d="m 25.47066,4.3012485 c -8.330871,0 -15.5277442,5.0304516 -18.817765,12.2625895 -0.1146191,-0.01374 -0.2314674,-0.02231 -0.3495398,-0.02231 -1.7181129,0 -3.112128,1.45331 -3.112128,3.242259 0,1.271778 0.7028211,2.372296 1.7252432,2.900195 -0.1127478,0.889327 -0.1710281,1.797901 -0.1710281,2.717994 0,6.162628 2.6081877,11.713982 6.7596687,15.568073 -0.162466,0.392709 -0.252838,0.828203 -0.252838,1.282769 0,1.788951 1.394016,3.238549 3.112128,3.238549 0.890241,0 1.695966,-0.388899 2.260663,-1.01135 2.684404,1.295305 5.682778,2.018979 8.845573,2.018979 3.19973,0 6.23146,-0.739784 8.934819,-2.067316 0.560646,0.567625 1.328121,0.914675 2.17142,0.914675 1.718112,0 3.112127,-1.449583 3.112127,-3.238546 0,-0.413433 -0.07664,-0.810937 -0.211896,-1.171226 4.126788,-3.859321 6.718771,-9.393268 6.718771,-15.534607 0,-0.899271 -0.05468,-1.787964 -0.163618,-2.654784 0.942823,-0.556976 1.576513,-1.609639 1.576513,-2.818394 0,-1.788942 -1.393993,-3.24226 -3.112127,-3.24226 l -0.148728,0.0072 C 41.085695,9.3903701 33.85132,4.3010038 25.470646,4.3010038 Z m 0,2.1082113 c 7.519238,0 14.015894,4.5550722 16.962391,11.0950852 -0.641446,0.593671 -1.048528,1.460901 -1.048528,2.424259 0,0.129519 0.0094,0.257081 0.0259,0.382996 -10.511222,6.47723 -20.940146,6.59311 -31.4484592,0.3458 l -0.5874829,-0.356952 0.0295,-0.256579 0.011512,-0.260247 c 0,-0.888875 -0.3455823,-1.69442 -0.9072423,-2.279249 C 11.457439,10.964501 17.95206,6.4094877 25.470642,6.4094877 Z m -0.07052,4.8857022 a 5.7016708,5.7016708 0 0 0 -5.69999,5.703709 5.7016708,5.7016708 0 0 0 5.69999,5.699989 5.7016708,5.7016708 0 0 0 5.699982,-5.699989 5.7016708,5.7016708 0 0 0 -5.699982,-5.703709 z m 0,2.056162 a 3.6464173,3.6464173 0 0 1 0.0037,0 v 7.295095 a 3.6464173,3.6464173 0 0 1 -0.0037,0 3.6464173,3.6464173 0 0 1 -3.643827,-3.647548 3.6464173,3.6464173 0 0 1 3.643827,-3.647547 z M 8.3708207,22.204339 9.080981,22.631946 c 4.623762,2.716877 9.259439,4.278676 13.898599,4.6812 l -8.458886,11.704866 -0.156134,-0.0072 c -0.536255,0 -1.039505,0.143548 -1.47984,0.39415 -3.7258659,-3.474296 -6.0643725,-8.46593 -6.0643725,-14.002712 0,-0.833119 0.052525,-1.654602 0.1598753,-2.454004 0.5262524,-0.121594 1.0017144,-0.383213 1.3906045,-0.743638 z m 33.9693983,0.05613 c 0.443795,0.444228 1.011463,0.751704 1.64716,0.858904 0.08835,0.748051 0.133838,1.511074 0.133838,2.282969 0,5.491178 -2.300696,10.443989 -5.97142,13.909751 -0.462071,-0.282986 -0.99826,-0.44617 -1.572791,-0.44617 -0.232403,0 -0.458835,0.02806 -0.676705,0.07806 L 27.474778,27.33916 c 4.961639,-0.368897 9.921564,-2.062955 14.865329,-5.079049 z m -17.122274,5.595875 8.897631,12.266317 c -0.408252,0.548269 -0.650655,1.238477 -0.650655,1.985515 0,0.1467 0.0067,0.292553 0.0295,0.435018 -2.432066,1.185082 -5.15264,1.847934 -8.02386,1.847934 -2.865106,0 -5.581328,-0.661018 -8.005262,-1.844222 l 0.01078,-0.293706 c 0,-0.921345 -0.369612,-1.756017 -0.96301,-2.346177 z" /></svg>
